.
..............................Site Info...........................

 -   http://www.scenetime.com  *_*    

Scenetime .Always on time . friendly online private torrent community ..

     We care to share . Join us on  http://www.scenetime.com 

    Be the first to get new release at  http://www.scenetime.com

        Seed back for speed


...................................NFO:.................................................[img]http://img571.imageshack.us/img571/7510/402343bas1nu8x.jpg[/img]
[img]http://iceimg.com/i/86/4a/83bdbcf94d.jpg[/img]


Genre:Action | Adventure | Crime
Language:English
IMDb:http://www.imdb.com/title/tt1345836/
Source:26K Thanks
Encoder:Tony

Format                                   : AVI
Format/Info                              : Audio Video Interleave
File size                                : 1.05 GiB
Duration                                 : 2h 36mn
Overall bit rate                         : 958 Kbps

Video
ID                                       : 0
Format                                   : MPEG-4 Visual
Format profile                           : Advanced Simple@L5
Format settings, BVOP                    : 1
Format settings, QPel                    : No
Format settings, GMC                     : No warppoints
Format settings, Matrix                  : Default (H.263)
Codec ID                                 : XVID
Codec ID/Hint                            : XviD
Duration                                 : 2h 36mn
Bit rate                                 : 787 Kbps
Width                                    : 640 pixels
Height                                   : 264 pixels
Display aspect ratio                     : 2.40:1
Frame rate                               : 29.970 fps
Color space                              : YUV
Chroma subsampling                       : 4:2:0
Bit depth                                : 8 bits
Scan type                                : Progressive
Compression mode                         : Lossy
Bits/(Pixel*Frame)                       : 0.155
Stream size                              : 882 MiB (82%)
Writing library                          : XviD 1.2.1 (UTC 2008-12-04)

Audio
ID                                       : 1
Format                                   : AC-3
Format/Info                              : Audio Coding 3
Mode extension                           : CM (complete main)
Codec ID                                 : 2000
Duration                                 : 2h 36mn
Bit rate mode                            : Constant
Bit rate                                 : 160 Kbps
Channel(s)                               : 2 channels
Channel positions                        : Front: L R
Sampling rate                            : 48.0 KHz
Bit depth                                : 16 bits
Compression mode                         : Lossy
Stream size                              : 179 MiB (17%)
Alignment                                : Aligned on interleaves
Interleave, duration                     : 33 ms (1.00 video frame)
Interleave, preload duration             : 512 ms

     
Plot:
  Eight years on, a new terrorist leader, Bane, overwhelms Gotham's finest, and the Dark Knight resurfaces to protect a city that has branded him an enemy. 




Greets:
 CRYS,INSPiRAL,IMAGINE,LKRG,ADTRG,FXG,3Li,FLAWL3SS,CrEwSaDe,TA,iLLUSiON,EMBER,HOPE,GooN,BBnRG,NOGRP,ETRG,BHRG,iLLUMiNATi,MiSTERE.ViSiON,DTRG SAFCuk009,LU,TheFalcon007,MYSTiC,PrisM,Noir,WBZ,LAP,Rx,Kingdom,SAFCuk009+Fabreezy,HDLiTE,TWiZTED,ETRG.ELEKTRI4KA,MAGNAT,CM8
                And to all the other p2p grps past and present